<?xml version="1.0" encoding="UTF-8"?>
<!DOCTYPE svg PUBLIC "-//W3C//DTD SVG 1.1//EN" "http://www.w3.org/Graphics/SVG/1.1/DTD/svg11.dtd">
<!-- Creator: CorelDRAW -->
<?xml-stylesheet href="solerubio.css" type="text/css"?>

<svg xmlns="http://www.w3.org/2000/svg" xml:space="preserve" width="949px" height="300px" version="1.1" style="shape-rendering:geometricPrecision; text-rendering:geometricPrecision; image-rendering:optimizeQuality; fill-rule:evenodd; clip-rule:evenodd"
viewBox="0 0 629.59 198.99"
 xmlns:xlink="http://www.w3.org/1999/xlink"
 xmlns:xodm="http://www.corel.com/coreldraw/odm/2003">
 <g id="Layer_x0020_1">
  <metadata id="CorelCorpID_0Corel-Layer"/>
  <path class="fil0" d="M32.24 158.21c-10.36,0 -18.88,-2.99 -25.33,-11.51 -6.45,-8.52 -6.91,-17.05 -6.91,-27.41 0,-2.53 0.23,-5.3 0.46,-7.83l20.96 -0.92c0,8.52 -2.31,27.86 10.82,27.86 8.52,0 9.9,-8.75 9.9,-15.42 0,-8.06 -3.45,-17.05 -8.29,-23.49 -1.61,-2.08 -3.22,-4.15 -4.83,-6.45 -3.69,-5.3 -7.14,-10.6 -10.6,-15.89 -8.98,-13.59 -17.27,-26.95 -17.27,-43.76 0,-19.57 11.28,-33.39 31.55,-33.39 25.56,0 29.02,20.5 29.02,41.45l-20.96 2.3c0,-7.36 1.61,-23.72 -9.44,-23.72 -7.83,0 -8.98,8.3 -8.98,14.28 0,25.57 41.22,53.2 41.22,91.89 0,20.27 -10.82,32.01 -31.32,32.01z"/>
  <path class="fil0" d="M127.88 145.54c-5.3,8.53 -15.43,12.67 -25.34,12.67 -10.13,0 -19.8,-4.14 -25.56,-12.67 -5.76,-8.52 -4.84,-18.88 -4.84,-28.78l0 -79.22c0,-9.44 -0.46,-16.81 4.84,-24.87 5.53,-8.29 15.66,-12.67 25.56,-12.67 9.91,0 19.58,4.38 25.34,12.67 5.98,8.75 5.06,18.42 5.06,28.55l0 75.54c0,10.59 0.92,19.57 -5.06,28.78zm-16.58 -113.07l0 0c0,-6.45 -1.16,-12.44 -8.76,-12.44 -7.6,0 -8.98,5.99 -8.98,12.44l0 93.27c0,6.68 1.15,12.44 8.98,12.44 7.6,0 8.76,-5.99 8.76,-12.44l0 -93.27z"/>
  <polygon class="fil0" points="145.21,155.91 145.21,2.3 166.63,2.3 166.63,135.87 197.03,135.87 197.03,155.91 "/>
  <polygon class="fil0" points="206.87,155.91 206.87,2.3 258.68,2.3 258.68,22.34 228.28,22.34 228.28,65.4 249.47,65.4 249.47,85.44 228.28,85.44 228.28,135.87 260.52,135.87 260.52,155.91 "/>
  <path class="fil1" d="M350.52 155.91l-12.2 -66.1c-2.54,0.46 -5.07,0.69 -7.83,0.92l0 65.18 -21.42 0 0 -153.61 20.96 0c14.04,0 25.79,0.92 33.39,14.05 5.06,8.75 5.99,19.12 5.99,29.02 0,7.37 -0.23,15.43 -2.31,22.57 -1.61,5.75 -4.83,10.13 -8.52,14.73l14.97 73.24 -23.03 0zm-2.07 -114.46l0 0c0,-11.97 -1.15,-19.11 -14.74,-19.11l-3.22 0 0 46.75 3.22 0c11.98,0 14.74,-5.3 14.74,-16.58l0 -11.06z"/>
  <path class="fil0" d="M443 119.98c0,9.67 0.46,17.5 -4.84,25.79 -5.52,8.52 -15.66,12.44 -25.56,12.44 -9.9,0 -19.8,-3.92 -25.56,-12.44 -5.53,-8.06 -4.84,-16.35 -4.84,-25.79l0 -117.68 21.42 0 0 123.44c0,6.45 1.38,12.44 8.98,12.44 7.6,0 8.98,-5.99 8.98,-12.44l0 -123.44 21.42 0 0 117.68z"/>
  <g id="_2051593899184">
   <path class="fil0" d="M453.68 111.69c0,-8.98 0,-18.88 4.61,-26.94 3.22,-5.53 5.75,-7.37 11.74,-9.67 -3.91,-2.54 -6.91,-4.84 -9.21,-8.99 -3.69,-7.14 -4.38,-17.27 -4.38,-25.1 0,-10.59 1.39,-21.65 9.45,-29.48 9.9,-9.9 17.96,-9.21 31.54,-9.21l19.35 0 0 153.61 -21.42 0c-32.93,0 -41.68,-12.9 -41.68,-44.22zm23.72 -69.78l0 0c0,12.44 -1.84,24.18 14.74,24.18l3.22 0 0 -43.75 -3.22 0c-14.05,0 -14.74,7.14 -14.74,19.57zm-2.3 69.09l0 0c0,15.2 0,24.87 18.19,24.87l2.07 0 0 -49.74 -2.07 0c-18.19,0 -18.19,9.67 -18.19,24.87z"/>
  </g>
  <polygon class="fil0" points="529.56,155.91 529.56,2.3 550.97,2.3 550.97,155.91 "/>
  <path class="fil0" d="M624.47 145.54c-5.29,8.53 -15.43,12.67 -25.33,12.67 -10.13,0 -19.81,-4.14 -25.56,-12.67 -5.76,-8.52 -4.84,-18.88 -4.84,-28.78l0 -79.22c0,-9.44 -0.46,-16.81 4.84,-24.87 5.52,-8.29 15.66,-12.67 25.56,-12.67 9.9,0 19.58,4.38 25.33,12.67 5.99,8.75 5.07,18.42 5.07,28.55l0 75.54c0,10.59 0.92,19.57 -5.07,28.78zm-16.58 -113.07l0 0c0,-6.45 -1.15,-12.44 -8.75,-12.44 -7.6,0 -8.98,5.99 -8.98,12.44l0 93.27c0,6.68 1.15,12.44 8.98,12.44 7.6,0 8.75,-5.99 8.75,-12.44l0 -93.27z"/>
  <g id="_2051593910704">
   <polygon class="fil1" points="460.08,176.45 460.08,183.59 463.6,183.59 463.6,186.92 460.08,186.92 460.08,198.61 456.53,198.61 456.53,173.12 465.12,173.12 465.12,176.45 "/>
   <path class="fil1" d="M484.19 196.89c-0.88,1.41 -2.56,2.1 -4.21,2.1 -1.68,0 -3.28,-0.69 -4.24,-2.1 -0.95,-1.41 -0.8,-3.13 -0.8,-4.78l0 -13.14c0,-1.57 -0.08,-2.79 0.8,-4.13 0.92,-1.37 2.6,-2.1 4.24,-2.1 1.65,0 3.25,0.73 4.21,2.1 0.99,1.45 0.84,3.06 0.84,4.74l0 12.53c0,1.76 0.15,3.25 -0.84,4.78zm-2.75 -18.76l0 0c0,-1.07 -0.2,-2.07 -1.46,-2.07 -1.26,0 -1.49,1 -1.49,2.07l0 15.47c0,1.11 0.19,2.07 1.49,2.07 1.26,0 1.46,-1 1.46,-2.07l0 -15.47z"/>
   <polygon class="fil1" points="502.02,176.45 502.02,198.61 498.47,198.61 498.47,176.45 495.14,176.45 495.14,173.12 505.5,173.12 505.5,176.45 "/>
   <path class="fil1" d="M524.9 196.89c-0.88,1.41 -2.56,2.1 -4.2,2.1 -1.68,0 -3.29,-0.69 -4.24,-2.1 -0.96,-1.41 -0.81,-3.13 -0.81,-4.78l0 -13.14c0,-1.57 -0.07,-2.79 0.81,-4.13 0.91,-1.37 2.59,-2.1 4.24,-2.1 1.64,0 3.25,0.73 4.2,2.1 1,1.45 0.84,3.06 0.84,4.74l0 12.53c0,1.76 0.16,3.25 -0.84,4.78zm-2.75 -18.76l0 0c0,-1.07 -0.19,-2.07 -1.45,-2.07 -1.26,0 -1.49,1 -1.49,2.07l0 15.47c0,1.11 0.19,2.07 1.49,2.07 1.26,0 1.45,-1 1.45,-2.07l0 -15.47z"/>
   <path class="fil1" d="M546.6 181.41l-3.55 0c0.03,-0.57 0.03,-1.1 0.03,-1.68 0,-1.26 0.23,-3.67 -1.56,-3.67 -1.65,0 -1.45,1.65 -1.45,2.79l0 14.49c0,0.95 0.15,2.36 1.41,2.36 1.34,0 1.53,-1.45 1.53,-2.48l0 -4.55 -1.53 0 0 -3.01 5.12 0 0 12.95 -1.91 0 -0.57 -1.76c-0.81,1.15 -1.8,2.14 -3.29,2.14 -1.53,0 -2.87,-0.95 -3.59,-2.25 -0.73,-1.34 -0.73,-2.91 -0.73,-4.4l0 -13.49c0,-3.44 1.23,-6.11 5.05,-6.11 4.01,0 5.12,3.17 5.12,6.65 0,0.69 -0.04,1.34 -0.08,2.02z"/>
   <path class="fil1" d="M564.36 198.61l-2.02 -10.97c-0.42,0.08 -0.84,0.12 -1.3,0.15l0 10.82 -3.56 0 0 -25.49 3.48 0c2.33,0 4.28,0.15 5.54,2.33 0.84,1.45 1,3.18 1,4.82 0,1.22 -0.04,2.56 -0.39,3.74 -0.26,0.96 -0.8,1.68 -1.41,2.45l2.48 12.15 -3.82 0zm-0.34 -18.99l0 0c0,-1.99 -0.19,-3.17 -2.45,-3.17l-0.53 0 0 7.75 0.53 0c1.99,0 2.45,-0.88 2.45,-2.75l0 -1.83z"/>
   <path class="fil1" d="M586.41 198.61l-0.62 -5.73 -3.21 0 -0.61 5.73 -3.44 0 3.44 -25.49 4.62 0 3.33 25.49 -3.51 0zm-2.15 -21.21l0 0 -0.15 0c-0.34,4.05 -0.72,8.1 -1.14,12.15l2.44 0c-0.42,-4.05 -0.84,-8.1 -1.15,-12.15z"/>
   <polygon class="fil1" points="603.86,176.45 603.86,183.59 607.38,183.59 607.38,186.92 603.86,186.92 603.86,198.61 600.31,198.61 600.31,173.12 608.9,173.12 608.9,176.45 "/>
   <path class="fil1" d="M625.37 198.61l-0.61 -5.73 -3.21 0 -0.61 5.73 -3.44 0 3.44 -25.49 4.62 0 3.33 25.49 -3.52 0zm-2.14 -21.21l0 0 -0.15 0c-0.35,4.05 -0.73,8.1 -1.15,12.15l2.45 0c-0.42,-4.05 -0.84,-8.1 -1.15,-12.15z"/>
  </g>
 </g>
</svg>
